<svg width="272" height="272" viewBox="0 0 272 272" fill="none" xmlns="http://www.w3.org/2000/svg">
<rect width="272" height="272" rx="68" fill="#162A3C"/>
<path opacity="0.4" d="M100.809 92.5404L165.795 70.8568C194.974 61.1316 210.825 77.0521 201.17 106.228L179.484 171.206C164.931 214.934 141.011 214.934 126.457 171.206L120.045 151.9L100.736 145.489C57.0758 131.009 57.0758 107.164 100.809 92.5404Z" fill="#92DBF2"/>
<path d="M136.904 138.782C135.535 138.782 134.166 138.278 133.086 137.197C132.081 136.18 131.517 134.808 131.517 133.379C131.517 131.949 132.081 130.578 133.086 129.561L160.464 102.042C162.553 99.9531 166.011 99.9531 168.101 102.042C170.19 104.131 170.19 107.589 168.101 109.678L140.723 137.197C139.642 138.205 138.273 138.782 136.904 138.782Z" fill="#92DBF2"/>
</svg>
